<svg width="24" height="24" viewBox="0 0 24 24" fill="none" xmlns="http://www.w3.org/2000/svg">
<path fill-rule="evenodd" clip-rule="evenodd" d="M14.0921 20.7556C13.4207 20.9154 12.7202 21 11.9999 21C11.4971 21 11.0039 20.9588 10.5235 20.8795C10.6213 20.6981 10.6013 20.5168 10.5927 20.4646L9.71601 13.8095C9.91883 13.726 10.06 13.5515 10.06 13.3478C10.06 13.1727 9.9561 13.0185 9.79815 12.9253C9.82879 12.7973 9.89766 12.6389 10.0199 12.6002C10.0768 12.5825 10.1828 12.5576 10.3172 12.5262L10.3444 12.5198C11.1032 12.3408 11.8721 12.1421 12.2051 11.848C12.5661 11.526 12.8397 10.5029 12.4739 10.0629C12.1725 9.69943 11.1547 9.66659 10.557 9.67856C10.393 9.39079 10.1191 8.96442 9.86891 8.82917C9.62756 8.69864 9.1954 8.6619 8.88549 8.65328C8.88454 8.17041 8.78693 7.58068 8.33297 7.48355C8.23283 7.4624 8.0774 7.45628 7.90175 7.55146C7.34923 7.85036 6.72342 9.27807 6.04011 11.787C5.95797 11.8006 5.88184 11.8279 5.81392 11.8647C5.76495 11.883 5.72388 11.9128 5.69103 11.9515C5.58046 12.0508 5.51159 12.1836 5.51159 12.3305C5.51159 12.4032 5.52929 12.4722 5.5593 12.5359C5.23308 13.2818 4.60974 14.7529 4.07796 16.2747C3.39032 15.0031 2.99994 13.5471 2.99994 12C2.99994 7.02944 7.02938 3 11.9999 3C16.9705 3 20.9999 7.02944 20.9999 12C20.9999 13.6799 20.5397 15.2523 19.7384 16.598C18.9126 15.5142 17.8752 14.5815 17.0451 14.2307C17.0308 14.2136 17.0174 14.1957 17.005 14.1755C16.9804 14.1359 16.9468 14.1058 16.9098 14.0819C16.9148 13.8343 16.9717 13.5694 17.0218 13.349C17.0373 13.2812 17.0517 13.2183 17.0629 13.1619C17.1611 12.6717 17.0473 12.3702 16.8408 11.8231L16.8407 11.8228L16.7869 11.6806C16.7813 11.6612 16.7736 11.6261 16.7635 11.5798L16.7583 11.5557C16.599 10.8268 16.402 10.111 15.9046 10.0608C15.4429 10.0186 15.0471 10.6706 14.7761 11.3016C14.3742 11.3304 13.6138 11.4578 13.4654 12.0084C13.378 12.3333 13.0898 12.5676 12.9166 12.7085L12.9147 12.71C12.7949 12.807 12.7156 12.8715 12.682 12.9902C12.6008 13.2824 12.6571 13.8263 12.8911 14.2304C13.0426 14.4916 13.2523 14.663 13.4974 14.7268C13.648 14.7659 13.8328 15.0293 13.9464 15.3667C13.9632 15.4166 13.9937 15.4566 14.0295 15.4904C14.0298 15.4919 14.0297 15.4934 14.0295 15.4949C14.0294 15.496 14.0293 15.4972 14.0295 15.4985C14.2622 16.5905 14.1878 19.1766 14.1632 20.0263C14.1573 20.2262 14.1548 20.3529 14.1564 20.3765C14.1586 20.4143 14.1471 20.4564 14.1321 20.5097L14.1319 20.5105C14.1146 20.5733 14.0914 20.6579 14.0921 20.7556ZM22.9999 12C22.9999 18.0751 18.0751 23 11.9999 23C5.92481 23 0.999939 18.0751 0.999939 12C0.999939 5.92487 5.92481 1 11.9999 1C18.0751 1 22.9999 5.92487 22.9999 12Z" fill="#406FCA"/>
</svg>
